<svg width="34" height="34" viewBox="0 0 34 34" fill="none" xmlns="http://www.w3.org/2000/svg">
<path d="M21.25 24.9687C21.1457 27.5923 18.9594 29.82 16.0305 29.7483C15.3491 29.7316 14.5068 29.4941 12.8224 29.019C8.76862 27.8755 5.24953 25.9538 4.4052 21.6489C4.25 20.8575 4.25 19.967 4.25 18.1861L4.25 15.8139C4.25 14.033 4.25 13.1425 4.4052 12.3511C5.24953 8.04618 8.76862 6.12448 12.8224 4.98104C14.5069 4.50591 15.3491 4.26835 16.0305 4.25168C18.9594 4.18003 21.1457 6.40768 21.25 9.03126" stroke="white" stroke-width="1.5" stroke-linecap="round"/>
<path d="M29.7503 17.0002H14.167M29.7503 17.0002C29.7503 16.0082 26.9251 14.1548 26.2087 13.4585M29.7503 17.0002C29.7503 17.9922 26.9251 19.8455 26.2087 20.5418" stroke="white" stroke-width="1.5" stroke-linecap="round" stroke-linejoin="round"/>
</svg>
